<mxfile host="app.diagrams.net" modified="2023-08-28T08:52:35.574Z" agent="Mozilla/5.0 (X11; Linux x86_64) AppleWebKit/537.36 (KHTML, like Gecko) Chrome/115.0.0.0 Safari/537.36" etag="cM_Dq_PM_pM694de6oZb" version="21.6.8" type="github">
  <diagram name="Page-1" id="xJ-KlhbRvitaUBRhA--o">
    <mxGraphModel dx="1050" dy="523" grid="1" gridSize="10" guides="1" tooltips="1" connect="1" arrows="1" fold="1" page="1" pageScale="1" pageWidth="827" pageHeight="1169" math="0" shadow="0">
      <root>
        <mxCell id="0" />
        <mxCell id="1" parent="0" />
        <mxCell id="z8xaD2IjOE9rShif-37s-1" value="inputs" style="shape=step;perimeter=stepPerimeter;whiteSpace=wrap;html=1;fixedSize=1;" vertex="1" parent="1">
          <mxGeometry x="10" y="200" width="90" height="40" as="geometry" />
        </mxCell>
        <mxCell id="z8xaD2IjOE9rShif-37s-2" value="btn_1" style="shape=step;perimeter=stepPerimeter;whiteSpace=wrap;html=1;fixedSize=1;" vertex="1" parent="1">
          <mxGeometry x="10" y="100" width="90" height="40" as="geometry" />
        </mxCell>
        <mxCell id="z8xaD2IjOE9rShif-37s-3" value="btn_2" style="shape=step;perimeter=stepPerimeter;whiteSpace=wrap;html=1;fixedSize=1;" vertex="1" parent="1">
          <mxGeometry x="10" y="150" width="90" height="40" as="geometry" />
        </mxCell>
        <mxCell id="z8xaD2IjOE9rShif-37s-5" value="register &lt;br&gt;allocation" style="whiteSpace=wrap;html=1;" vertex="1" parent="1">
          <mxGeometry x="230" y="120" width="100" height="100" as="geometry" />
        </mxCell>
        <mxCell id="z8xaD2IjOE9rShif-37s-7" value="" style="endArrow=classic;html=1;rounded=0;entryX=0;entryY=0.5;entryDx=0;entryDy=0;exitX=1;exitY=0.5;exitDx=0;exitDy=0;" edge="1" parent="1" source="z8xaD2IjOE9rShif-37s-3" target="z8xaD2IjOE9rShif-37s-5">
          <mxGeometry width="50" height="50" relative="1" as="geometry">
            <mxPoint x="390" y="300" as="sourcePoint" />
            <mxPoint x="440" y="250" as="targetPoint" />
          </mxGeometry>
        </mxCell>
        <mxCell id="z8xaD2IjOE9rShif-37s-8" value="" style="endArrow=classic;html=1;rounded=0;entryX=0;entryY=0.25;entryDx=0;entryDy=0;exitX=1;exitY=0.5;exitDx=0;exitDy=0;" edge="1" parent="1" source="z8xaD2IjOE9rShif-37s-2" target="z8xaD2IjOE9rShif-37s-5">
          <mxGeometry width="50" height="50" relative="1" as="geometry">
            <mxPoint x="390" y="300" as="sourcePoint" />
            <mxPoint x="440" y="250" as="targetPoint" />
            <Array as="points">
              <mxPoint x="200" y="120" />
              <mxPoint x="200" y="145" />
            </Array>
          </mxGeometry>
        </mxCell>
        <mxCell id="z8xaD2IjOE9rShif-37s-9" value="" style="endArrow=classic;html=1;rounded=0;entryX=0;entryY=0.75;entryDx=0;entryDy=0;exitX=1;exitY=0.5;exitDx=0;exitDy=0;" edge="1" parent="1" source="z8xaD2IjOE9rShif-37s-1" target="z8xaD2IjOE9rShif-37s-5">
          <mxGeometry width="50" height="50" relative="1" as="geometry">
            <mxPoint x="390" y="300" as="sourcePoint" />
            <mxPoint x="440" y="250" as="targetPoint" />
            <Array as="points">
              <mxPoint x="200" y="220" />
              <mxPoint x="200" y="195" />
            </Array>
          </mxGeometry>
        </mxCell>
        <mxCell id="z8xaD2IjOE9rShif-37s-10" value="register &lt;br&gt;allocation" style="whiteSpace=wrap;html=1;" vertex="1" parent="1">
          <mxGeometry x="460" y="120" width="100" height="100" as="geometry" />
        </mxCell>
        <mxCell id="z8xaD2IjOE9rShif-37s-11" value="sat_en" style="shape=step;perimeter=stepPerimeter;whiteSpace=wrap;html=1;fixedSize=1;" vertex="1" parent="1">
          <mxGeometry x="10" y="250" width="90" height="40" as="geometry" />
        </mxCell>
        <mxCell id="z8xaD2IjOE9rShif-37s-12" value="" style="endArrow=classic;html=1;rounded=0;entryX=0;entryY=0.5;entryDx=0;entryDy=0;exitX=1;exitY=0.5;exitDx=0;exitDy=0;" edge="1" parent="1" source="z8xaD2IjOE9rShif-37s-5" target="z8xaD2IjOE9rShif-37s-10">
          <mxGeometry width="50" height="50" relative="1" as="geometry">
            <mxPoint x="390" y="300" as="sourcePoint" />
            <mxPoint x="440" y="250" as="targetPoint" />
          </mxGeometry>
        </mxCell>
        <mxCell id="z8xaD2IjOE9rShif-37s-13" value="" style="endArrow=classic;html=1;rounded=0;entryX=0;entryY=0.25;entryDx=0;entryDy=0;exitX=1;exitY=0.25;exitDx=0;exitDy=0;" edge="1" parent="1" source="z8xaD2IjOE9rShif-37s-5" target="z8xaD2IjOE9rShif-37s-10">
          <mxGeometry width="50" height="50" relative="1" as="geometry">
            <mxPoint x="390" y="300" as="sourcePoint" />
            <mxPoint x="440" y="250" as="targetPoint" />
          </mxGeometry>
        </mxCell>
        <mxCell id="z8xaD2IjOE9rShif-37s-14" value="" style="endArrow=classic;html=1;rounded=0;entryX=0;entryY=0.75;entryDx=0;entryDy=0;exitX=1;exitY=0.5;exitDx=0;exitDy=0;" edge="1" parent="1" source="z8xaD2IjOE9rShif-37s-11" target="z8xaD2IjOE9rShif-37s-10">
          <mxGeometry width="50" height="50" relative="1" as="geometry">
            <mxPoint x="390" y="300" as="sourcePoint" />
            <mxPoint x="440" y="250" as="targetPoint" />
            <Array as="points">
              <mxPoint x="390" y="270" />
              <mxPoint x="390" y="195" />
            </Array>
          </mxGeometry>
        </mxCell>
        <mxCell id="z8xaD2IjOE9rShif-37s-15" value="Result" style="shape=step;perimeter=stepPerimeter;whiteSpace=wrap;html=1;fixedSize=1;" vertex="1" parent="1">
          <mxGeometry x="660" y="110" width="90" height="40" as="geometry" />
        </mxCell>
        <mxCell id="z8xaD2IjOE9rShif-37s-16" value="Z, N, C, V &lt;br&gt;flags" style="shape=step;perimeter=stepPerimeter;whiteSpace=wrap;html=1;fixedSize=1;" vertex="1" parent="1">
          <mxGeometry x="660" y="180" width="90" height="40" as="geometry" />
        </mxCell>
        <mxCell id="z8xaD2IjOE9rShif-37s-17" value="" style="endArrow=classic;html=1;rounded=0;entryX=0;entryY=0.5;entryDx=0;entryDy=0;exitX=1.028;exitY=0.826;exitDx=0;exitDy=0;exitPerimeter=0;" edge="1" parent="1" source="z8xaD2IjOE9rShif-37s-10" target="z8xaD2IjOE9rShif-37s-16">
          <mxGeometry width="50" height="50" relative="1" as="geometry">
            <mxPoint x="390" y="300" as="sourcePoint" />
            <mxPoint x="440" y="250" as="targetPoint" />
          </mxGeometry>
        </mxCell>
        <mxCell id="z8xaD2IjOE9rShif-37s-18" value="" style="endArrow=classic;html=1;rounded=0;entryX=0;entryY=0.5;entryDx=0;entryDy=0;exitX=1.028;exitY=0.826;exitDx=0;exitDy=0;exitPerimeter=0;" edge="1" parent="1">
          <mxGeometry width="50" height="50" relative="1" as="geometry">
            <mxPoint x="560" y="131.5" as="sourcePoint" />
            <mxPoint x="677" y="128.5" as="targetPoint" />
          </mxGeometry>
        </mxCell>
        <mxCell id="z8xaD2IjOE9rShif-37s-19" value="btn_1" style="text;html=1;strokeColor=none;fillColor=none;align=center;verticalAlign=middle;whiteSpace=wrap;rounded=0;" vertex="1" parent="1">
          <mxGeometry x="90" y="90" width="60" height="30" as="geometry" />
        </mxCell>
        <mxCell id="z8xaD2IjOE9rShif-37s-20" value="btn_2" style="text;html=1;strokeColor=none;fillColor=none;align=center;verticalAlign=middle;whiteSpace=wrap;rounded=0;" vertex="1" parent="1">
          <mxGeometry x="90" y="150" width="60" height="30" as="geometry" />
        </mxCell>
        <mxCell id="z8xaD2IjOE9rShif-37s-21" value="inputs 15:0" style="text;html=1;strokeColor=none;fillColor=none;align=center;verticalAlign=middle;whiteSpace=wrap;rounded=0;" vertex="1" parent="1">
          <mxGeometry x="90" y="200" width="80" height="30" as="geometry" />
        </mxCell>
        <mxCell id="z8xaD2IjOE9rShif-37s-22" value="sat_en" style="text;html=1;strokeColor=none;fillColor=none;align=center;verticalAlign=middle;whiteSpace=wrap;rounded=0;" vertex="1" parent="1">
          <mxGeometry x="90" y="250" width="60" height="30" as="geometry" />
        </mxCell>
        <mxCell id="z8xaD2IjOE9rShif-37s-23" value="reg_a 15:0" style="text;html=1;strokeColor=none;fillColor=none;align=center;verticalAlign=middle;whiteSpace=wrap;rounded=0;" vertex="1" parent="1">
          <mxGeometry x="330" y="120" width="60" height="30" as="geometry" />
        </mxCell>
        <mxCell id="z8xaD2IjOE9rShif-37s-24" value="reg_b 15:0" style="text;html=1;strokeColor=none;fillColor=none;align=center;verticalAlign=middle;whiteSpace=wrap;rounded=0;" vertex="1" parent="1">
          <mxGeometry x="330" y="150" width="60" height="30" as="geometry" />
        </mxCell>
        <mxCell id="z8xaD2IjOE9rShif-37s-25" value="result 15:0" style="text;html=1;strokeColor=none;fillColor=none;align=center;verticalAlign=middle;whiteSpace=wrap;rounded=0;" vertex="1" parent="1">
          <mxGeometry x="570" y="105" width="60" height="30" as="geometry" />
        </mxCell>
        <mxCell id="z8xaD2IjOE9rShif-37s-26" value="Z, N, C, V" style="text;html=1;strokeColor=none;fillColor=none;align=center;verticalAlign=middle;whiteSpace=wrap;rounded=0;" vertex="1" parent="1">
          <mxGeometry x="560" y="180" width="60" height="30" as="geometry" />
        </mxCell>
        <mxCell id="z8xaD2IjOE9rShif-37s-29" value="" style="group" vertex="1" connectable="0" parent="1">
          <mxGeometry x="160" y="210" width="34" height="20" as="geometry" />
        </mxCell>
        <mxCell id="z8xaD2IjOE9rShif-37s-27" value="" style="endArrow=none;html=1;rounded=0;" edge="1" parent="z8xaD2IjOE9rShif-37s-29">
          <mxGeometry width="50" height="50" relative="1" as="geometry">
            <mxPoint y="20" as="sourcePoint" />
            <mxPoint x="20" as="targetPoint" />
          </mxGeometry>
        </mxCell>
        <mxCell id="z8xaD2IjOE9rShif-37s-28" value="" style="endArrow=none;html=1;rounded=0;" edge="1" parent="z8xaD2IjOE9rShif-37s-29">
          <mxGeometry width="50" height="50" relative="1" as="geometry">
            <mxPoint x="14" y="20" as="sourcePoint" />
            <mxPoint x="34" as="targetPoint" />
          </mxGeometry>
        </mxCell>
        <mxCell id="z8xaD2IjOE9rShif-37s-30" value="" style="group" vertex="1" connectable="0" parent="1">
          <mxGeometry x="390" y="160" width="34" height="20" as="geometry" />
        </mxCell>
        <mxCell id="z8xaD2IjOE9rShif-37s-31" value="" style="endArrow=none;html=1;rounded=0;" edge="1" parent="z8xaD2IjOE9rShif-37s-30">
          <mxGeometry width="50" height="50" relative="1" as="geometry">
            <mxPoint y="20" as="sourcePoint" />
            <mxPoint x="20" as="targetPoint" />
          </mxGeometry>
        </mxCell>
        <mxCell id="z8xaD2IjOE9rShif-37s-32" value="" style="endArrow=none;html=1;rounded=0;" edge="1" parent="z8xaD2IjOE9rShif-37s-30">
          <mxGeometry width="50" height="50" relative="1" as="geometry">
            <mxPoint x="14" y="20" as="sourcePoint" />
            <mxPoint x="34" as="targetPoint" />
          </mxGeometry>
        </mxCell>
        <mxCell id="z8xaD2IjOE9rShif-37s-33" value="" style="group" vertex="1" connectable="0" parent="1">
          <mxGeometry x="397" y="130" width="34" height="20" as="geometry" />
        </mxCell>
        <mxCell id="z8xaD2IjOE9rShif-37s-34" value="" style="endArrow=none;html=1;rounded=0;" edge="1" parent="z8xaD2IjOE9rShif-37s-33">
          <mxGeometry width="50" height="50" relative="1" as="geometry">
            <mxPoint y="20" as="sourcePoint" />
            <mxPoint x="20" as="targetPoint" />
          </mxGeometry>
        </mxCell>
        <mxCell id="z8xaD2IjOE9rShif-37s-35" value="" style="endArrow=none;html=1;rounded=0;" edge="1" parent="z8xaD2IjOE9rShif-37s-33">
          <mxGeometry width="50" height="50" relative="1" as="geometry">
            <mxPoint x="14" y="20" as="sourcePoint" />
            <mxPoint x="34" as="targetPoint" />
          </mxGeometry>
        </mxCell>
        <mxCell id="z8xaD2IjOE9rShif-37s-36" value="" style="group" vertex="1" connectable="0" parent="1">
          <mxGeometry x="620" y="120" width="34" height="20" as="geometry" />
        </mxCell>
        <mxCell id="z8xaD2IjOE9rShif-37s-37" value="" style="endArrow=none;html=1;rounded=0;" edge="1" parent="z8xaD2IjOE9rShif-37s-36">
          <mxGeometry width="50" height="50" relative="1" as="geometry">
            <mxPoint y="20" as="sourcePoint" />
            <mxPoint x="20" as="targetPoint" />
          </mxGeometry>
        </mxCell>
        <mxCell id="z8xaD2IjOE9rShif-37s-38" value="" style="endArrow=none;html=1;rounded=0;" edge="1" parent="z8xaD2IjOE9rShif-37s-36">
          <mxGeometry width="50" height="50" relative="1" as="geometry">
            <mxPoint x="14" y="20" as="sourcePoint" />
            <mxPoint x="34" as="targetPoint" />
          </mxGeometry>
        </mxCell>
        <mxCell id="z8xaD2IjOE9rShif-37s-39" value="" style="group" vertex="1" connectable="0" parent="1">
          <mxGeometry x="620" y="190" width="34" height="20" as="geometry" />
        </mxCell>
        <mxCell id="z8xaD2IjOE9rShif-37s-40" value="" style="endArrow=none;html=1;rounded=0;" edge="1" parent="z8xaD2IjOE9rShif-37s-39">
          <mxGeometry width="50" height="50" relative="1" as="geometry">
            <mxPoint y="20" as="sourcePoint" />
            <mxPoint x="20" as="targetPoint" />
          </mxGeometry>
        </mxCell>
        <mxCell id="z8xaD2IjOE9rShif-37s-41" value="" style="endArrow=none;html=1;rounded=0;" edge="1" parent="z8xaD2IjOE9rShif-37s-39">
          <mxGeometry width="50" height="50" relative="1" as="geometry">
            <mxPoint x="14" y="20" as="sourcePoint" />
            <mxPoint x="34" as="targetPoint" />
          </mxGeometry>
        </mxCell>
      </root>
    </mxGraphModel>
  </diagram>
</mxfile>
